<?xml version="1.0" encoding="utf-8"?>
<!-- Generator: Adobe Illustrator 26.0.3, SVG Export Plug-In . SVG Version: 6.00 Build 0)  -->
<svg version="1.1"
	 id="svg916" inkscape:version="1.1-dev (ccb98c3c56, 2020-01-19)" xmlns:cc="http://creativecommons.org/ns#" xmlns:dc="http://purl.org/dc/elements/1.1/" xmlns:inkscape="http://www.inkscape.org/namespaces/inkscape" xmlns:rdf="http://www.w3.org/1999/02/22-rdf-syntax-ns#" xmlns:sodipodi="http://sodipodi.sourceforge.net/DTD/sodipodi-0.dtd" xmlns:svg="http://www.w3.org/2000/svg"
	 xmlns="http://www.w3.org/2000/svg" xmlns:xlink="http://www.w3.org/1999/xlink" x="0px" y="0px" viewBox="0 0 64 64"
	 style="enable-background:new 0 0 64 64;" xml:space="preserve">
<style type="text/css">
	.st0{fill:none;stroke:#000000;stroke-width:4;stroke-linecap:round;stroke-linejoin:round;}
	.st1{stroke:#FFFFFF;stroke-width:2;stroke-linecap:round;stroke-linejoin:round;}
	.st2{fill:#FFCC00;}
	.st3{fill:#FF0000;}
	.st4{fill:#FFFFFF;}
	.st5{fill:#00FF00;}
	.st6{fill:#FF00FF;}
	.st7{fill:#666666;stroke:#000000;stroke-width:4;stroke-linecap:round;stroke-linejoin:round;}
	.st8{fill:none;stroke:#000000;stroke-width:3.8857;stroke-linecap:round;stroke-linejoin:round;}
	.st9{stroke:#FFFFFF;stroke-width:1.9394;stroke-linecap:round;stroke-linejoin:round;}
	.st10{fill:#FFFFFF;stroke:#000000;stroke-width:0.25;stroke-miterlimit:10;}
</style>
<sodipodi:namedview  bordercolor="#666666" borderopacity="1.0" fit-margin-bottom="0" fit-margin-left="0" fit-margin-right="0" fit-margin-top="0" id="base" inkscape:bbox-nodes="true" inkscape:bbox-paths="true" inkscape:current-layer="layer1" inkscape:cx="-255.94195" inkscape:cy="-46.345015" inkscape:document-rotation="0" inkscape:document-units="px" inkscape:object-paths="true" inkscape:pageopacity="0.0" inkscape:pageshadow="2" inkscape:snap-bbox="true" inkscape:snap-bbox-edge-midpoints="true" inkscape:snap-bbox-midpoints="true" inkscape:snap-center="true" inkscape:snap-global="true" inkscape:snap-intersection-paths="true" inkscape:snap-midpoints="true" inkscape:snap-object-midpoints="true" inkscape:snap-smooth-nodes="true" inkscape:window-height="1024" inkscape:window-maximized="1" inkscape:window-width="1920" inkscape:window-x="0" inkscape:window-y="28" inkscape:zoom="2.8" pagecolor="#ffffff" showgrid="true" units="px">
	<inkscape:grid  id="grid928" type="xygrid"></inkscape:grid>
</sodipodi:namedview>
<g id="layer1" transform="translate(-84.470781,-25.020833)" inkscape:groupmode="layer" inkscape:label="Calque 1">
	<path id="rect1066" class="st0" d="M-84.2-19h16.3c3.5,0,6.4,2.8,6.4,6.4v0.3c0,3.5-2.8,6.4-6.4,6.4h-16.3c-3.5,0-6.4-2.8-6.4-6.4
		v-0.3C-90.5-16.1-87.7-19-84.2-19z"/>
	<path id="rect1068" class="st0" d="M-84-19L-84-19c3.6,0,6.5,3.4,6.5,7.5v38c0,4.1-2.9,7.5-6.5,7.5l0,0c-3.6,0-6.5-3.4-6.5-7.5v-38
		C-90.5-15.6-87.6-19-84-19z"/>
	<path id="rect1010" class="st1" d="M-84.2-19c-3.5,0-6.4,2.8-6.4,6.4v0.3c0,0.1,0,0.3,0,0.4c0,0.2,0,0.3,0,0.5v38
		c0,4.2,2.9,7.5,6.5,7.5s6.5-3.3,6.5-7.5V-6h9.6c3.5,0,6.4-2.8,6.4-6.4v-0.3c0-3.5-2.8-6.4-6.4-6.4H-84H-84.2z"/>
	<circle id="circle1016" class="st2" cx="-84" cy="-12.5" r="2.5"/>
	<circle id="circle1018" class="st3" cx="-84" cy="-4.5" r="2.5"/>
	<circle id="circle1020" class="st4" cx="-84" cy="3.5" r="2.5"/>
	<circle id="circle1022" class="st5" cx="-84" cy="11.5" r="2.5"/>
	<circle id="circle1024" class="st3" cx="-84" cy="19.5" r="2.5"/>
	<circle id="circle1026" class="st2" cx="-84" cy="27.5" r="2.5"/>
	<circle id="circle1028" class="st2" cx="-68" cy="-12.5" r="2.5"/>
	<path id="rect1040" class="st0" d="M-132.5-37.6v16.3c0,3.5-2.8,6.4-6.4,6.4h-0.3c-3.5,0-6.4-2.8-6.4-6.4v-16.3
		c0-3.5,2.8-6.4,6.4-6.4h0.3C-135.4-44-132.5-41.1-132.5-37.6z"/>
	<path id="rect1030" class="st1" d="M-132.5-37.5v16.1c0,3.6-2.9,6.5-6.5,6.5h-0.1c-3.6,0-6.5-2.9-6.5-6.5v-16.1
		c0-3.6,2.9-6.5,6.5-6.5h0.1C-135.4-44-132.5-41.1-132.5-37.5z"/>
	<circle id="circle1032" class="st5" cx="-139" cy="-29.5" r="2.5"/>
	<circle id="circle1034" class="st3" cx="-139" cy="-37.5" r="2.5"/>
	<circle id="circle1036" class="st2" cx="-139" cy="-21.5" r="2.5"/>
	<path id="rect1054" class="st0" d="M-107.5-53.5v32c0,3.6-2.9,6.5-6.5,6.5h0c-3.6,0-6.5-2.9-6.5-6.5v-32c0-3.6,2.9-6.5,6.5-6.5h0
		C-110.4-60-107.5-57.1-107.5-53.5z"/>
	<path id="rect1042" class="st1" d="M-107.5-53.6v32.3c0,3.5-2.8,6.4-6.4,6.4h-0.3c-3.5,0-6.4-2.8-6.4-6.4v-32.3
		c0-3.5,2.8-6.4,6.4-6.4h0.3C-110.4-60-107.5-57.1-107.5-53.6z"/>
	<circle id="circle1044" class="st3" cx="-114" cy="-29.5" r="2.5"/>
	<circle id="circle1046" class="st5" cx="-114" cy="-37.5" r="2.5"/>
	<circle id="circle1048" class="st2" cx="-114" cy="-21.5" r="2.5"/>
	<circle id="circle1050" class="st4" cx="-114" cy="-45.5" r="2.5"/>
	<circle id="circle1052" class="st3" cx="-114" cy="-53.5" r="2.5"/>
	<path id="rect1064" class="st0" d="M-162.5-30.6v10.2c0,3.5-2.9,6.4-6.4,6.4h-0.2c-3.5,0-6.4-2.9-6.4-6.4v-10.2
		c0-3.5,2.9-6.4,6.4-6.4h0.2C-165.4-37-162.5-34.1-162.5-30.6z"/>
	<path id="rect1056" class="st1" d="M-162.5-30.6v10.2c0,3.5-2.9,6.4-6.4,6.4h-0.2c-3.5,0-6.4-2.9-6.4-6.4v-10.2
		c0-3.5,2.9-6.4,6.4-6.4h0.2C-165.4-37-162.5-34.1-162.5-30.6z"/>
	<circle id="circle1058" class="st4" cx="-169" cy="-30.5" r="2.5"/>
	<circle id="circle1060" class="st6" cx="-169" cy="-20.5" r="2.5"/>
	<path id="path1129" class="st7" d="M-68.2-95c-3.5,0-6.4,2.8-6.4,6.4v3.6H-84h-0.1c-3.5,0-6.4,2.8-6.4,6.4v0.3c0,0.1,0,0.3,0,0.4
		c0,0.2,0,0.3,0,0.5v8.9v0.3v28.9c0,4.2,2.9,7.5,6.5,7.5s6.5-3.3,6.5-7.5V-62h9.6c3.5,0,6.4-2.8,6.4-6.4v-0.3v-9.7v-0.3v-10
		c0-3.5-2.8-6.4-6.4-6.4H-68.2z"/>
	<path id="rect1076" class="st1" d="M-68.2-95c-3.5,0-6.4,2.8-6.4,6.4v3.6H-84h-0.1c-3.5,0-6.4,2.8-6.4,6.4v0.3c0,0.1,0,0.3,0,0.4
		c0,0.2,0,0.3,0,0.5v8.9v0.3v28.9c0,4.2,2.9,7.5,6.5,7.5s6.5-3.3,6.5-7.5V-62h9.6c3.5,0,6.4-2.8,6.4-6.4v-0.3v-9.7v-0.3v-10
		c0-3.5-2.8-6.4-6.4-6.4H-68.2z"/>
	<circle id="circle1084" class="st2" cx="-84" cy="-78.5" r="2.5"/>
	<circle id="circle1086" class="st3" cx="-84" cy="-70.5" r="2.5"/>
	<circle id="circle1088" class="st4" cx="-84" cy="-62.5" r="2.5"/>
	<circle id="circle1090" class="st5" cx="-84" cy="-54.5" r="2.5"/>
	<circle id="circle1092" class="st3" cx="-84" cy="-46.5" r="2.5"/>
	<circle id="circle1094" class="st2" cx="-84" cy="-38.5" r="2.5"/>
	<circle id="circle1096" class="st2" cx="-68" cy="-78.5" r="2.5"/>
	<circle id="circle1100" class="st2" cx="-68" cy="-88.5" r="2.5"/>
	<circle id="circle1102" class="st2" cx="-68" cy="-68.5" r="2.5"/>
	<circle id="circle1147" class="st8" cx="-218" cy="-32" r="15.1"/>
	<circle id="path1145" class="st9" cx="-218" cy="-32" r="15"/>
	<circle id="circle1131" class="st2" cx="-218" cy="-22.5" r="2.5"/>
	<circle id="circle1133" class="st5" cx="-218" cy="-32.5" r="2.5"/>
	<circle id="circle1137" class="st3" cx="-210" cy="-28.5" r="2.5"/>
	<circle id="circle1139" class="st2" cx="-226" cy="-28.5" r="2.5"/>
	<circle id="circle1141" class="st2" cx="-210" cy="-36.5" r="2.5"/>
	<circle id="circle1143" class="st2" cx="-226" cy="-36.5" r="2.5"/>
	<path id="rect1149" d="M-176.5-7h5c0.6,0,1,0.4,1,1v5c0,0.6-0.4,1-1,1h-5c-0.6,0-1-0.4-1-1v-5C-177.5-6.5-177.1-7-176.5-7z"/>
	<circle id="circle1151" class="st4" cx="-174" cy="-3.5" r="1.5"/>
	<rect id="rect1155" x="-145.5" y="-10" width="7" height="10"/>
	<text transform="matrix(1 0 0 1 -145.3261 -0.9792)" class="st4" style="font-family:'PoliceSNCF'; font-size:8px;">F</text>
	<rect id="rect1155_00000054263153804579179480000011286328162327109797_" x="-156.3" y="-10" class="st10" width="7" height="10"/>
	<text id="A" transform="matrix(1 0 0 1 -155.5761 -0.9792)" style="font-family:'PoliceSNCF'; font-size:8px;">A</text>
	<rect id="rect1161" x="-134.3" y="-10" width="9.8" height="10"/>
	<text transform="matrix(1 0 0 1 -134.1308 -0.9792)" class="st4" style="font-family:'PoliceSNCF'; font-size:8px;">Nf</text>
	<path id="rect1167" class="st0" d="M-249.9-65h-16.3c-3.5,0-6.4-2.8-6.4-6.4v-0.3c0-3.5,2.8-6.4,6.4-6.4h16.3
		c3.5,0,6.4,2.8,6.4,6.4v0.3C-243.5-67.8-246.4-65-249.9-65z"/>
	<path id="rect1169" class="st1" d="M-250-65h-16.1c-3.6,0-6.5-2.9-6.5-6.5v-0.1c0-3.6,2.9-6.5,6.5-6.5h16.1c3.6,0,6.5,2.9,6.5,6.5
		v0.1C-243.5-67.9-246.4-65-250-65z"/>
	<circle id="circle1171" class="st4" cx="-258" cy="-71.5" r="2.5"/>
	<circle id="circle1173" class="st4" cx="-250" cy="-71.5" r="2.5"/>
	<circle id="circle1175" class="st4" cx="-266" cy="-71.5" r="2.5"/>
	<path id="rect1177" class="st0" d="M-292.9-65h-8.3c-3.5,0-6.4-2.8-6.4-6.4v-0.3c0-3.5,2.8-6.4,6.4-6.4h8.3c3.5,0,6.4,2.8,6.4,6.4
		v0.3C-286.5-67.8-289.4-65-292.9-65z"/>
	<path id="rect1179" class="st1" d="M-293-65h-8.1c-3.6,0-6.5-2.9-6.5-6.5v-0.1c0-3.6,2.9-6.5,6.5-6.5h8.1c3.6,0,6.5,2.9,6.5,6.5
		v0.1C-286.5-67.9-289.4-65-293-65z"/>
	<circle id="circle1181" class="st4" cx="-293" cy="-71.5" r="2.5"/>
	<circle id="circle1185" class="st4" cx="-301" cy="-71.5" r="2.5"/>
	<path id="rect1187" class="st0" d="M-198.9-65h-24.3c-3.5,0-6.4-2.8-6.4-6.4v-0.3c0-3.5,2.8-6.4,6.4-6.4h24.3
		c3.5,0,6.4,2.8,6.4,6.4v0.3C-192.5-67.8-195.4-65-198.9-65z"/>
	<path id="rect1189" class="st1" d="M-199-65h-24.1c-3.6,0-6.5-2.9-6.5-6.5v-0.1c0-3.6,2.9-6.5,6.5-6.5h24.1c3.6,0,6.5,2.9,6.5,6.5
		v0.1C-192.5-67.9-195.4-65-199-65z"/>
	<circle id="circle1191" class="st4" cx="-215" cy="-71.5" r="2.5"/>
	<circle id="circle1193" class="st4" cx="-207" cy="-71.5" r="2.5"/>
	<circle id="circle1195" class="st4" cx="-223" cy="-71.5" r="2.5"/>
	<circle id="circle1197" class="st4" cx="-199" cy="-71.5" r="2.5"/>
	<path id="rect1199" class="st0" d="M-140-65h-32c-3.6,0-6.5-2.9-6.5-6.5v0c0-3.6,2.9-6.5,6.5-6.5h32c3.6,0,6.5,2.9,6.5,6.5v0
		C-133.5-67.9-136.4-65-140-65z"/>
	<path id="rect1201" class="st1" d="M-139.9-65h-32.3c-3.5,0-6.4-2.8-6.4-6.4v-0.3c0-3.5,2.8-6.4,6.4-6.4h32.3
		c3.5,0,6.4,2.8,6.4,6.4v0.3C-133.5-67.8-136.4-65-139.9-65z"/>
	<circle id="circle1203" class="st4" cx="-164" cy="-71.5" r="2.5"/>
	<circle id="circle1205" class="st4" cx="-156" cy="-71.5" r="2.5"/>
	<circle id="circle1207" class="st4" cx="-172" cy="-71.5" r="2.5"/>
	<circle id="circle1209" class="st4" cx="-148" cy="-71.5" r="2.5"/>
	<circle id="circle1211" class="st4" cx="-140" cy="-71.5" r="2.5"/>
</g>
</svg>
